<?xml version="1.0" encoding="UTF-8"?><svg id="a" xmlns="http://www.w3.org/2000/svg" viewBox="0 0 973.46146 587.02513"><defs><style>.ab{fill:#fbbebe;}.ac{fill:#eb4420;}.ad{fill:#fffcf0;}.ae{fill:#ffb6b6;}.af{fill:#feb8b8;}.ag{fill:#999790;}.ah{fill:#333230;}.ai{fill:#b2b0a8;}.aj{fill:#4c4b48;}</style></defs><g id="b"><path id="c" class="ad" d="M561.87746,471.61302c-6.34576,0-11.48999,5.14423-11.48999,11.48999s5.14423,11.48999,11.48999,11.48999,11.48999-5.14423,11.48999-11.48999h0c0-6.34576-5.14423-11.48999-11.48999-11.48999Zm0,18.56097c-3.90521,0-7.07098-3.16577-7.07104-7.07098,0-3.90521,3.16583-7.07098,7.07098-7.07104,3.90521,0,7.07104,3.16583,7.07104,7.07098v.00012c-.00006,3.90515-3.16583,7.07092-7.07098,7.07092Z"/><path id="d" class="ad" d="M517.6844,462.77397h44.19299v43.73901c0,3.1795-2.57745,5.75702-5.75696,5.75702h-32.67908c-3.1795,0-5.75702-2.57745-5.75702-5.75696v-43.73907h.00006Z"/></g><path id="e" class="ai" d="M665.13338,513.27098H.89638c-.55228-.06061-.95088-.55743-.89029-1.10968,.05142-.46875,.42155-.83887,.89029-.89032H665.13338c.55231,.06061,.95087,.55743,.89032,1.10968-.05145,.46875-.42157,.83887-.89032,.89032Z"/><polygon class="ae" points="89.41003 494.38101 85.30203 514.69397 161.69504 540.20801 167.75903 510.228 89.41003 494.38101"/><path class="ah" d="M97.09033,490.54155l-8.09119,40.00293-.00034,.00165c-2.849,14.07867-16.57076,23.1828-30.64977,20.33551l-.82841-.1676,13.24783-65.49628,26.32187,5.32379Z"/><circle id="f" class="af" cx="175.97942" cy="162.713" r="51.871"/><path id="g" class="ah" d="M224.42744,117.963c-7.75513-12.59314-19.89438-21.87257-34.08105-26.052l-6.36801,4.647v-6.034c-3.40704-.52147-6.85544-.72234-10.29999-.60001l-5.49399,4.97099v-4.558c-16.44531,2.04359-31.28662,10.87146-40.93201,24.34702-11.931,17.20001-13.94501,41.129-2.21001,58.46701,3.22099-9.89999,7.131-19.189,10.353-29.08801,2.53185,.34512,5.09795,.35754,7.63301,.03699l3.91901-9.14499,1.095,8.758c12.14801-1.05801,30.16599-3.38199,41.68201-5.51099l-1.12-6.71899,6.70001,5.58301c3.52802-.81201,5.62299-1.54901,5.45001-2.112,8.565,13.80801,19.047,22.62701,27.61099,36.435,3.25299-19.47,6.99701-35.65906-3.93799-53.42603Z"/><ellipse id="h" class="ah" cx="192.85641" cy="464.78699" rx="133.56" ry="37.35901"/><path class="ac" d="M287.53923,296.10103c-1.78369-10.73099-3.62354-21.668-8.61084-31.33499-3.27783-6.332-8.48099-12.366-15.49512-13.61801-1.38162-.12314-2.73947-.43747-4.03467-.93399-2.05518-.98999-29.67334-16.75601-34.06299-19.50201-3.76901-2.35736-9.71875-6.72223-12.71875-6.72223-3.01807-.06635-14.59082,2.62708-59.76025-.90381-7.5979,3.04984-14.95543,6.6673-22.01025,10.82172-.14551-.09589-46.88184,25.00134-48.6377,24.9353-3.3252-.14001-6.416,1.98901-8.32227,4.67004-1.90576,2.681-2.7998,6-3.73584,9.20898,10.20801,22.733,19.54785,45.495,29.75684,68.228,.478,.85626,.73195,1.81937,.73828,2.79999-.20515,1.01767-.63948,1.97525-1.27,2.79999-5.00635,8.04199-4.84717,18.15701-4.30029,27.60898,.54736,9.45203,1.22412,19.43597-3,27.90802-1.14893,2.32599-2.64307,4.45502-3.73584,6.78101-2.55908,5.26801-3.48389,22.117-1.98926,27.77698l187.26662,5.36481c-4.0264-11.06793,13.92233-145.88876,13.92233-145.88876Z"/><path id="i" class="ab" d="M53.96341,341.95796c-.37367,2.70297-.41129,5.44177-.112,8.15399l2.68401,38.54599c.252,3.633,.5,7.25702,.841,10.88098,.644,7.03302,1.606,14.01001,2.8,20.97699,.05615,2.05969,1.76921,3.68506,3.82899,3.633,11.815,2.5,24.022,2.40002,36.08,1.71899,18.39999-1.02698,65.47398-2.96997,68.34999-6.70599s1.20001-9.77899-2.54999-12.79999-65.871-10.38599-65.871-10.38599c.60699-4.81,2.438-9.34003,4.175-13.90698,3.12-8.09998,6.034-16.466,6.09-25.14301s-3.213-17.79999-10.321-22.771c-5.847-4.08099-13.375-4.83801-20.5-4.67001-5.18401,.14899-14.14101-1.09299-18.87601,.93399-3.74699,1.65005-5.91901,7.87009-6.619,11.53903Z"/><path id="j" class="ah" d="M287.87138,429.09105c3.10999-1.18597,6.53799-.75702,9.87201-.30798,10.73199,1.466,21.62201,2.96997,31.569,7.25702,4.67001,2,9.116,4.66998,12.27301,8.59998,2.79999,3.53998,4.436,7.87402,5.987,12.14203l3.58701,9.82599c1.52499,3.69116,2.57635,7.56061,3.129,11.51599,1.121,11.75897-6.92099,22.84497-17.03601,28.95398-10.11502,6.10901-22.02301,8.284-33.62399,10.56299-11.60098,2.27899-23.24701,4.79999-34.79999,7.47198-5.38879,1.39838-10.85614,2.4743-16.37299,3.22198-12.366,1.40002-25.29199-.66302-37.04199,3.42798-4.67001,1.63501-9.25601,4.06299-14.10001,5.19299-3.21991,.67743-6.4754,1.17322-9.75101,1.48499l-22.23801,2.53998c-4.52203,.6048-9.07462,.95404-13.63599,1.04602-9.71301,0-19.26801-2.29999-28.7-4.59998-1.00223-.17621-1.95621-.56122-2.8-1.13-1.494-1.177-1.821-3.26001-2.036-5.146-.95267-8.35004-1.78601-16.70905-2.5-25.07703-.224-2.71802-.392-5.65997,1.093-7.948,1.868-2.79999,5.511-3.67999,8.836-4.22198,14.09921-2.30664,28.38232-3.29791,42.66501-2.961,5.42599-5.42603,14.37399-5.45398,21.48199-8.40601,2.61487-1.20087,5.14563-2.57703,7.57501-4.11902,12.71402-7.41772,26.92215-11.90698,41.59-13.14099,2.87259-.08759,5.72653-.49475,8.509-1.21399,5.5-1.70898,10.517-6.36102,16.16699-5.22101,.70001-1.93298,1.186-4.521,2.79999-5.84698,.79999-.68201,1.793-1.13898,2.53101-1.86798,1.56-1.578,1.70001-4.06299,1.466-6.26703-.23401-2.20404-.75699-4.46399-.18701-6.61298,.23709-.81335,.58609-1.58978,1.03699-2.30701,2.79199-4.83197,7.02301-7.31598,12.65497-6.84894Z"/><path id="k" class="ac" d="M69.61041,273.41399c-.9097,.95258-1.61513,2.08099-2.073,3.31601-7.54962,17.01465-12.00891,35.23782-13.16901,53.81601,.02036,.90591-.18843,1.80231-.60699,2.60599-.41278,.5347-.87225,1.03165-1.373,1.48499-1.83606,2.17661-1.55998,5.4295,.61662,7.26556,.08488,.07159,.17203,.14041,.26138,.20642,1.541-2.89999,5.23-3.84799,8.509-4.10001,15.7-1.242,31.036,6.06201,46.783,5.51099-1.11099-3.83899-2.709-7.52802-3.61501-11.41299-4.007-17.25101,5.987-36.03299-.14-52.64899-1.224-3.32501-3.269-6.59399-6.491-8.05099-1.33418-.53815-2.7303-.90765-4.15601-1.10001-3.979-.71899-11.89999-3.79199-15.74699-2.55899-1.42,.45801-1.98,1.793-3.157,2.60001-1.78802,1.14203-4.16,1.56201-5.64201,3.06601Z"/><path id="l" class="ab" d="M287.65129,330.41896c-4.73499-2.02701-13.69199-.785-18.87601-.93399-7.125-.168-14.65302,.58899-20.5,4.67001-7.108,4.97101-10.37701,14.09399-10.32101,22.77103,.056,8.677,2.97,17.04297,6.09,25.14301,1.737,4.56702,3.56799,9.09698,4.17499,13.90698,0,0-62.121,7.36499-65.871,10.38599s-5.42599,9.06403-2.54999,12.79999c2.87601,3.73596,92.61499,7.487,104.42999,4.987,2.05978,.05206,3.77286-1.5733,3.82901-3.633,1.194-6.96698,2.15601-13.94397,2.79999-20.97699,.341-3.62402,.58899-7.24799,.841-10.88098l2.68399-38.54599c.29929-2.71222,.26166-5.45102-.112-8.15399-.69992-3.66901-2.87195-9.88904-6.61896-11.53906Z"/><path id="m" class="ac" d="M272.98131,270.34798c-1.177-.80701-1.737-2.142-3.15701-2.60001-3.84698-1.233-11.76801,1.84-15.74701,2.55899-1.42569,.19235-2.82184,.56186-4.15601,1.10001-3.22198,1.457-5.267,4.72601-6.491,8.05099-6.12701,16.616,3.867,35.39801-.14001,52.64899-.90601,3.88501-2.504,7.57401-3.61499,11.41299,15.74701,.55099,31.08301-6.75299,46.78299-5.51099,3.27899,.25201,6.96799,1.20001,8.509,4.10001,.08936-.06601,.17645-.13483,.26138-.20642,2.17661-1.83606,2.4527-5.08896,.61664-7.26556-.50073-.45334-.96021-.95029-1.37299-1.48499-.41858-.80368-.62735-1.70007-.60699-2.60599-1.1601-18.57819-5.61938-36.80136-13.16901-53.81601-.45789-1.23502-1.1633-2.36343-2.073-3.31601-1.48199-1.504-3.854-1.92398-5.642-3.06601Z"/><polygon class="ae" points="299.24304 523.37799 296.51303 543.92102 215.97504 543.16602 220.00503 512.84601 299.24304 523.37799"/><path class="ah" d="M319.85316,520.78496l-8.80399,66.24017-.83783-.11133c-14.23874-1.89294-24.24762-14.96936-22.35645-29.20837l.00021-.00165,5.37729-40.45721,26.62076,3.53839Z"/><path id="n" class="ah" d="M109.76942,439.48698c0,.93402-1.466,0-1.60001-1-1.02699-7.55603-7.024-13.78601-14.00999-16.81201-6.98599-3.026-14.944-3.185-22.509-2.466-11.44099,1.08301-24.284,5.46399-28.468,16.15802-.99001,2.5-10.26401,24.76001-9.35899,29.76599,2.438,13.35602,11.57201,24.77899,22.64,32.69,11.06799,7.91101,24,12.63702,36.89999,16.90002,34.10619,11.24847,69.09872,19.60596,104.60699,24.98401,5.75299,.86902,11.56299,1.672,17.073,3.521,4.931,1.65302,9.54501,4.12799,14.36499,6.07098,11.20801,4.5,23.26599,6.10797,35.211,7.68701,2.03601,.26202,4.371,.448,5.875-.93402,1.94299-1.79999,1.29999-4.94098,.74701-7.52802-2.02737-9.83685-.32623-20.07617,4.77301-28.729,2-3.362,4.60001-6.80902,4.22198-10.70001-.448-4.539-4.96899-7.75201-9.47101-8.48102s-9.078,.34601-13.60001,.93402c-1.54968,.35596-3.17328,.19507-4.62299-.45801-.67187-.45349-1.2811-.99347-1.81201-1.60602-6.38873-6.16309-16.02032-7.50922-23.854-3.33398-1.672,.93402-4.20001-1.14899-5.94-1.93298l-19.642-8.89203c-22.565-10.20801-45.242-20.46399-69.11499-26.927-1.90488-.37451-3.71526-1.12738-5.32401-2.21399-1.186-.93402-2.036-2.20001-3.129-3.24103-2.382-2.25098-5.7-3.14801-8.55499-4.745s-6.056-5.50793-5.40198-8.71094Z"/><circle class="ab" cx="160.61687" cy="411.98984" r="14"/><circle class="ab" cx="191.61687" cy="411.98984" r="14"/><path class="aj" d="M278.03541,443.53697H85.69655c-4.67558-.00531-8.46466-3.79413-8.47021-8.46973v-116.68652c.00555-4.6756,3.79463-8.46445,8.47021-8.46973h192.33887c4.6756,.00528,8.46466,3.79413,8.47021,8.46973v116.68652c-.00555,4.6756-3.79462,8.46442-8.47021,8.46973Z"/><circle id="o" class="ad" cx="181.39941" cy="376.724" r="5.604"/><path class="ai" d="M868.02943,210.45222h-249.89282c-2.76013-.00314-4.99683-2.2399-5-5v-47.1001h2v47.1001c.00183,1.6561,1.34387,2.9982,3,3h249.89282c1.65613-.0018,2.99817-1.3439,3-3v-47.4292h2v47.4292c-.00317,2.7601-2.23987,4.99686-5,5Z"/><rect class="ai" x="371.39688" y="157.35214" width="587.21997" height="2"/><circle id="p" class="ac" cx="371.43942" cy="158.196" r="17.202"/><circle id="q" class="ac" cx="546.24441" cy="158.196" r="17.20201"/><circle id="r" class="aj" cx="664.87643" cy="208.757" r="17.20201"/><circle id="s" class="ag" cx="755.06338" cy="208.757" r="17.20201"/><circle id="t" class="ac" cx="711.36038" cy="158.196" r="17.20201"/><circle id="u" class="ac" cx="956.25943" cy="158.196" r="17.20201"/><circle id="v" class="ac" cx="872.02939" cy="158.196" r="17.20201"/><rect id="w" class="aj" x="648.53946" width="31.90643" height="21.98984"/><rect id="x" class="ac" x="355.61215" width="31.90646" height="21.98984"/><rect id="y" class="ag" x="463.68487" width="31.90646" height="21.98984"/><path class="ai" d="M424.78212,159.35213c-.55225-.00003-1-.44772-1-1v-49.3623c.00317-2.7601,2.23987-4.99686,5-5h48.6748c.55231,0,1,.44772,1,1s-.44769,1-1,1h-48.6748c-1.65613,.0018-2.99817,1.3439-3,3v49.3623c-.00006,.55228-.44775,.99997-1,1Z"/><circle id="a`" class="ag" cx="479.74441" cy="104.61599" r="17.202"/><path class="ai" d="M809.78212,158.35213h-2v-49.3623c.00317-2.7601,2.23987-4.99686,5-5h48.6748v2h-48.6748c-1.65613,.0018-2.99817,1.3439-3,3v49.3623Z"/><circle id="aa" class="ag" cx="863.74441" cy="104.61599" r="17.20201"/></svg>