<?xml version="1.0" encoding="UTF-8"?><svg id="a" xmlns="http://www.w3.org/2000/svg" viewBox="0 0 722 568.36983"><defs><style>.b{fill:#fffcf0;}.c{fill:#ffb6b6;}.d{fill:#e4e4e4;}.e{fill:#9d3a74;}.f{fill:#333230;}.g{fill:#b2b0a8;}</style></defs><circle class="g" cx="98.8" cy="101.86985" r="98.8"/><circle class="e" cx="98.8" cy="101.86985" r="82.3"/><circle class="g" cx="361" cy="101.86985" r="98.8"/><circle class="b" cx="361" cy="101.86985" r="82.3"/><circle class="g" cx="623.20001" cy="101.86985" r="98.8"/><circle class="b" cx="623.20001" cy="101.86985" r="82.3"/><path class="b" d="M91.8,131.56984h-.4c-2.6-.10001-5.1-1.39999-6.7-3.5l-12.7-16.2c-3.1-3.9-2.4-9.6,1.6-12.7l.5-.4c3.9-3.1,9.6-2.4,12.7,1.6,2.7,3.5,7.8,4.1,11.3,1.4,.3-.2,.6-.5,.9-.8l25.6-27.1c3.4-3.6,9.2-3.8,12.8-.3h0l.39999,.4c3.60001,3.4,3.8,9.2,.3,12.8l-39.8,42.00001c-1.69999,1.79999-4.09999,2.79999-6.49998,2.79999Z"/><path class="f" d="M317.70001,81.86985h-65V25.36984c.10001-7.3,6.10001-13.1,13.39999-13h21.60001c16.5,0,30,13,30,28.9v40.60001Z"/><polygon class="c" points="341.70001 554.86983 329.39999 554.86983 323.5 507.26985 341.70001 507.26985 341.70001 554.86983"/><path class="f" d="M344.89999,566.86983h-39.79999v-.5c0-8.59998,6.89999-15.5,15.5-15.5h24.29999v16Z"/><polygon class="c" points="228 554.86983 215.60001 554.86983 209.8 507.26985 228 507.26985 228 554.86983"/><path class="f" d="M231.10001,566.86983h-39.8v-.5c0-8.59998,6.89999-15.5,15.5-15.5h24.3v16Z"/><polygon class="c" points="242.89999 172.46984 234.8 223.86985 311.29999 224.86985 301.29999 175.56984 242.89999 172.46984"/><path class="f" d="M237.10001,211.26984l-24.39999,64.90001-3,268.80002h20.60001l49.29999-216,45.29999,210.40002h20.10001l-14-236.50006s4.20001-47.5-17.10001-75.5l-5.20001-15-71.59998-1.09999Z"/><path class="c" d="M341.60001,261.86983c-8-2.20001-12.79999-10.5-10.60001-18.5,.20001-.89999,.5-1.7,.89999-2.5l-32.5-106.10001,23.89999-4.7,29.79999,104c7.29999,4.10001,9.89999,13.3,5.89999,20.7-3.49997,6.00003-10.69998,9.00003-17.39996,7.10001h0Z"/><path class="d" d="M298.5,200.86985l-52.7-1c-3.10001-.10001-5.8-2.2-6.5-5.2-2.8-11.2-9-40.39999-5.7-69.4,2.7-23.2,23.70001-39.9,47-37.2,.39999,0,.79999,.1,1.20001,.2,23.20001,3.3,39.29999,24.8,35.89999,48-.20001,1.60001-.60001,3.2-1,4.8-6.60001,25.2-10.39999,43.2-11.10001,53.60001-.20001,3.10001-2.5,5.60001-5.5,6.2h0c-.39999,.10001-.89999,.10001-1.29999,.10001-.20001-.10001-.30002-.10001-.30002-.10001Z"/><path class="c" d="M138.3,107.66984c.3,.7,.60001,1.4,.8,2.2l66,22.4,12.8-11.1,19.3,17.00001-20.7,21.89999c-3.39999,3.60001-8.8,4.60001-13.3,2.3l-70.60001-36.1c-6.9,4.3-16,2.1-20.3-4.9-4.3-6.9-2.1-16,4.9-20.3,6.9-4.3,16.00001-2.1,20.3,4.9,.3,.6,.60001,1.1,.8,1.7h0Z"/><path class="d" d="M205.2,128.76984c0-1.8,.8-3.6,2.2-4.8l24.2-20.6c6.39999-7.3,17.5-8.1,24.8-1.7,7.29999,6.4,8.10001,17.4,1.70001,24.7l-17.2,26.8c-1.89999,2.89999-5.8,3.8-8.7,1.89999-.3-.2-.5-.39999-.7-.60001l-24.10001-21c-1.40001-1.2-2.20001-2.89999-2.20001-4.7Z"/><path class="d" d="M297.89999,161.66985c-1.60001-.89999-2.79999-2.39999-3.20001-4.2l-7.10001-30.9c-3.60001-9,.89999-19.2,9.89999-22.8,9-3.5,19.20001,.9,22.70001,9.8l15.89999,27.60001c1.70001,3,.70001,6.89999-2.29999,8.60001-.29999,.2-.5,.3-.79999,.39999l-29.70001,11.7c-1.89999,.69998-3.79999,.59998-5.39999-.20001Z"/><ellipse class="f" cx="309.6594" cy="11.94772" rx="11.29974" ry="14.99967" transform="translate(177.03515 292.0236) rotate(-66.87063)"/><circle class="c" cx="272.79998" cy="45.56984" r="30.8" transform="translate(180.58966 306.32585) rotate(-80.00844)"/><path class="f" d="M289.70001,10.36984h-35.2c-5.39999-.1-9.89999,4-10.3,9.3-.39999,5.5,3.8,10.3,9.3,10.6h.7c5.5,0,10,4.5,10,10v41h55V39.76984c0-16.2-13.20001-29.4-29.5-29.4h0Z"/><path class="g" d="M463.20001,568.36983H82.20001c-.6,0-1-.40002-1-1s.4-1,1-1H463.20001c.60001,0,1,.40002,1,1s-.40002,1-1,1Z"/></svg>