<svg id="b41d88dc-45a7-47a6-9a7c-ef68e2a00781" data-name="Layer 1" xmlns="http://www.w3.org/2000/svg" viewBox="0 0 206.64893 77.56641"><defs><style>.bc29183e-ba80-4bef-890e-da759c513abb{fill:#5c9fd8;}</style></defs><path class="bc29183e-ba80-4bef-890e-da759c513abb" d="M35.47705,76.04785V58.36621H2.62354V47.07275L30.57227,1.89941H51.90381V45.36182H60.6875V58.36621H51.90381V76.04785Zm0-30.686V28.93506c0-4.44922.22852-9.01172.45654-13.80322h-.34228c-2.39551,4.7915-4.44873,9.126-6.9585,13.80322L18.82227,45.13379l-.11426.228Z"/><path class="bc29183e-ba80-4bef-890e-da759c513abb" d="M131.3479,44.24769l6.33065,3.6542a1.76118,1.76118,0,0,1,.8185,2.03128,36.75488,36.75488,0,0,1-8.15921,14.11266,1.76067,1.76067,0,0,1-2.16857.30678l-6.3259-3.65362a28.43734,28.43734,0,0,1-9.019,5.21465v7.306a1.75991,1.75991,0,0,1-1.35173,1.72482,37.10383,37.10383,0,0,1-16.29589.00031A1.76125,1.76125,0,0,1,93.82439,73.22V65.91364a28.43428,28.43428,0,0,1-9.019-5.21465l-6.3259,3.65362a1.76065,1.76065,0,0,1-2.16859-.30681,36.75687,36.75687,0,0,1-8.15919-14.11266,1.76114,1.76114,0,0,1,.81851-2.03125l6.3308-3.6542a28.71989,28.71989,0,0,1,0-10.42025l-6.33065-3.6542a1.76119,1.76119,0,0,1-.81851-2.03128,36.75514,36.75514,0,0,1,8.15922-14.11267,1.76064,1.76064,0,0,1,2.16856-.30677l6.3259,3.65362a28.43753,28.43753,0,0,1,9.019-5.21466V4.85529a1.75991,1.75991,0,0,1,1.35173-1.72482,37.10379,37.10379,0,0,1,16.29588-.00031A1.76125,1.76125,0,0,1,112.82454,4.855v7.30634a28.43394,28.43394,0,0,1,9.019,5.21465l6.3259-3.65362a1.76066,1.76066,0,0,1,2.1686.3068,36.757,36.757,0,0,1,8.15919,14.11266,1.76116,1.76116,0,0,1-.81851,2.03126l-6.3308,3.6542a28.72065,28.72065,0,0,1,0,10.42039Zm-16.62309-5.2102a11.82807,11.82807,0,1,0-11.82807,11.82807A11.84149,11.84149,0,0,0,114.72481,39.03749Z"/><path class="bc29183e-ba80-4bef-890e-da759c513abb" d="M178.81543,75.481V57.79932H145.96191V46.50586L173.91064,1.33252h21.33155v43.4624h8.78369v13.0044h-8.78369V75.481Zm0-30.686V28.36816c0-4.44921.22852-9.01171.45654-13.80322h-.34228c-2.39551,4.79151-4.44873,9.126-6.9585,13.80322l-9.81055,16.19873-.11425.228Z"/></svg>