<svg xmlns="http://www.w3.org/2000/svg">
    <defs>
        <symbol id="bg-triangle-corner" viewbox="0 0 1000 1000">
            <polygon points="1000 586.159 1000 0 402.522 0 1000 586.159"/>
        </symbol>
        <symbol id="bg-circle">
            <circle cx="50" cy="50" r="40" stroke-width=".5"/>
        </symbol>
        <symbol id="bg-wavey-lines" viewBox="0 0 1440 560" preserveAspectRatio="none">
            <g mask="url(&quot;#mask-1440x560&quot;)" fill="none">
                <path d="M -780.2825280344045,94 C -684.28,136.8 -492.28,304.6 -300.28252803440455,308 C -108.28,311.4 -12.28,107.8 179.71747196559545,111 C 371.72,114.2 467.72,318 659.7174719655955,324 C 851.72,330 983.66,121.2 1139.7174719655955,141 C 1295.77,160.8 1379.94,366.6 1440,423" stroke="var(--bs-primary)" stroke-width="2" opacity="0.1"></path>
                <path d="M -911.6948983110108,56 C -815.69,122 -623.69,352.2 -431.6948983110108,386 C -239.69,419.8 -143.69,208.8 48.305101688989225,225 C 240.31,241.2 336.31,470.4 528.3051016889892,467 C 720.31,463.6 825.97,215.6 1008.3051016889892,208 C 1190.64,200.4 1353.66,384.8 1440,429" stroke="var(--bs-primary)" stroke-width="2" opacity="0.1"></path>
                <path d="M -75.94173054377825,447 C 20.06,382 212.06,118.6 404.05826945622175,122 C 596.06,125.4 692.06,442.6 884.0582694562218,464 C 1076.06,485.4 1172.06,227.4 1364.0582694562218,229 C 1556.06,230.6 1828.87,491.2 1844.0582694562218,472 C 1859.25,452.8 1520.81,200.8 1440,133" stroke="var(--bs-primary)" stroke-width="2" opacity="0.1"></path>
                <path d="M -410.1365486257903,443 C -314.14,400.8 -122.14,246.2 69.86345137420969,232 C 261.86,217.8 357.86,368.6 549.8634513742097,372 C 741.86,375.4 837.86,255 1029.8634513742097,249 C 1221.86,243 1427.84,349 1509.8634513742097,342 C 1591.89,335 1453.97,239.6 1440,214" stroke="var(--bs-primary)" stroke-width="2" opacity="0.1"></path>
            </g>
        </symbol>
        <symbol id="bg-honey-comb" viewBox="0 0 1440 800" preserveAspectRatio="none">
            <g mask="url(&quot;#mask-1440x800&quot;)" fill="none">
                <path stroke="var(--bs-primary)" opacity="0.1" stroke-width="1" d="M34.68 -21.56L77.98 3.44L77.98 53.44L34.68 78.44L-8.62 53.44L-8.62 3.44zM77.98 53.44L121.28 78.44L121.28 128.44L77.98 153.44L34.68 128.44L34.68 78.44zM77.98 203.44L121.28 228.44L121.28 278.44L77.98 303.44L34.68 278.44L34.68 228.44zM77.98 803.44L121.28 828.44L121.28 878.44L77.98 903.44L34.68 878.44L34.68 828.44zM164.59 203.44L207.89 228.44L207.89 278.44L164.59 303.44L121.28 278.44L121.28 228.44zM121.28 278.44L164.59 303.44L164.59 353.44L121.28 378.44L77.98 353.44L77.98 303.44zM164.59 653.44L207.89 678.44L207.89 728.44L164.59 753.44L121.28 728.44L121.28 678.44zM121.28 728.44L164.59 753.44L164.59 803.44L121.28 828.44L77.98 803.44L77.98 753.44zM164.59 803.44L207.89 828.44L207.89 878.44L164.59 903.44L121.28 878.44L121.28 828.44zM207.89 -21.56L251.19 3.44L251.19 53.44L207.89 78.44L164.59 53.44L164.59 3.44zM207.89 278.44L251.19 303.44L251.19 353.44L207.89 378.44L164.59 353.44L164.59 303.44zM207.89 428.44L251.19 453.44L251.19 503.44L207.89 528.44L164.59 503.44L164.59 453.44zM251.19 803.44L294.5 828.44L294.5 878.44L251.19 903.44L207.89 878.44L207.89 828.44zM337.8 53.44L381.1 78.44L381.1 128.44L337.8 153.44L294.5 128.44L294.5 78.44zM294.5 128.44L337.8 153.44L337.8 203.44L294.5 228.44L251.19 203.44L251.19 153.44zM294.5 428.44L337.8 453.44L337.8 503.44L294.5 528.44L251.19 503.44L251.19 453.44zM294.5 578.44L337.8 603.44L337.8 653.44L294.5 678.44L251.19 653.44L251.19 603.44zM424.4 53.44L467.71 78.44L467.71 128.44L424.4 153.44L381.1 128.44L381.1 78.44zM424.4 203.44L467.71 228.44L467.71 278.44L424.4 303.44L381.1 278.44L381.1 228.44zM381.1 428.44L424.4 453.44L424.4 503.44L381.1 528.44L337.8 503.44L337.8 453.44zM424.4 503.44L467.71 528.44L467.71 578.44L424.4 603.44L381.1 578.44L381.1 528.44zM467.71 -21.56L511.01 3.44L511.01 53.44L467.71 78.44L424.4 53.44L424.4 3.44zM511.01 503.44L554.31 528.44L554.31 578.44L511.01 603.44L467.71 578.44L467.71 528.44zM597.61 53.44L640.91 78.44L640.91 128.44L597.61 153.44L554.31 128.44L554.31 78.44zM554.31 428.44L597.61 453.44L597.61 503.44L554.31 528.44L511.01 503.44L511.01 453.44zM597.61 503.44L640.91 528.44L640.91 578.44L597.61 603.44L554.31 578.44L554.31 528.44zM554.31 728.44L597.61 753.44L597.61 803.44L554.31 828.44L511.01 803.44L511.01 753.44zM684.22 53.44L727.52 78.44L727.52 128.44L684.22 153.44L640.91 128.44L640.91 78.44zM684.22 503.44L727.52 528.44L727.52 578.44L684.22 603.44L640.91 578.44L640.91 528.44zM684.22 653.44L727.52 678.44L727.52 728.44L684.22 753.44L640.91 728.44L640.91 678.44zM727.52 -21.56L770.82 3.44L770.82 53.44L727.52 78.44L684.22 53.44L684.22 3.44zM727.52 128.44L770.82 153.44L770.82 203.44L727.52 228.44L684.22 203.44L684.22 153.44zM770.82 353.44L814.13 378.44L814.13 428.44L770.82 453.44L727.52 428.44L727.52 378.44zM727.52 428.44L770.82 453.44L770.82 503.44L727.52 528.44L684.22 503.44L684.22 453.44zM727.52 728.44L770.82 753.44L770.82 803.44L727.52 828.44L684.22 803.44L684.22 753.44zM770.82 803.44L814.13 828.44L814.13 878.44L770.82 903.44L727.52 878.44L727.52 828.44zM857.43 203.44L900.73 228.44L900.73 278.44L857.43 303.44L814.13 278.44L814.13 228.44zM857.43 503.44L900.73 528.44L900.73 578.44L857.43 603.44L814.13 578.44L814.13 528.44zM814.13 728.44L857.43 753.44L857.43 803.44L814.13 828.44L770.82 803.44L770.82 753.44zM900.73 278.44L944.03 303.44L944.03 353.44L900.73 378.44L857.43 353.44L857.43 303.44zM900.73 578.44L944.03 603.44L944.03 653.44L900.73 678.44L857.43 653.44L857.43 603.44zM944.03 653.44L987.34 678.44L987.34 728.44L944.03 753.44L900.73 728.44L900.73 678.44zM987.34 128.44L1030.64 153.44L1030.64 203.44L987.34 228.44L944.03 203.44L944.03 153.44zM987.34 278.44L1030.64 303.44L1030.64 353.44L987.34 378.44L944.03 353.44L944.03 303.44zM987.34 428.44L1030.64 453.44L1030.64 503.44L987.34 528.44L944.03 503.44L944.03 453.44zM1030.64 503.44L1073.94 528.44L1073.94 578.44L1030.64 603.44L987.34 578.44L987.34 528.44zM1030.64 803.44L1073.94 828.44L1073.94 878.44L1030.64 903.44L987.34 878.44L987.34 828.44zM1073.94 -21.56L1117.24 3.44L1117.24 53.44L1073.94 78.44L1030.64 53.44L1030.64 3.44zM1073.94 128.44L1117.24 153.44L1117.24 203.44L1073.94 228.44L1030.64 203.44L1030.64 153.44zM1073.94 278.44L1117.24 303.44L1117.24 353.44L1073.94 378.44L1030.64 353.44L1030.64 303.44zM1117.24 503.44L1160.55 528.44L1160.55 578.44L1117.24 603.44L1073.94 578.44L1073.94 528.44zM1117.24 803.44L1160.55 828.44L1160.55 878.44L1117.24 903.44L1073.94 878.44L1073.94 828.44zM1160.55 -21.56L1203.85 3.44L1203.85 53.44L1160.55 78.44L1117.24 53.44L1117.24 3.44zM1160.55 128.44L1203.85 153.44L1203.85 203.44L1160.55 228.44L1117.24 203.44L1117.24 153.44zM1160.55 428.44L1203.85 453.44L1203.85 503.44L1160.55 528.44L1117.24 503.44L1117.24 453.44zM1203.85 653.44L1247.15 678.44L1247.15 728.44L1203.85 753.44L1160.55 728.44L1160.55 678.44zM1160.55 728.44L1203.85 753.44L1203.85 803.44L1160.55 828.44L1117.24 803.44L1117.24 753.44zM1290.45 503.44L1333.76 528.44L1333.76 578.44L1290.45 603.44L1247.15 578.44L1247.15 528.44zM1333.76 -21.56L1377.06 3.44L1377.06 53.44L1333.76 78.44L1290.45 53.44L1290.45 3.44zM1377.06 53.44L1420.36 78.44L1420.36 128.44L1377.06 153.44L1333.76 128.44L1333.76 78.44zM1333.76 278.44L1377.06 303.44L1377.06 353.44L1333.76 378.44L1290.45 353.44L1290.45 303.44zM1333.76 428.44L1377.06 453.44L1377.06 503.44L1333.76 528.44L1290.45 503.44L1290.45 453.44zM1377.06 653.44L1420.36 678.44L1420.36 728.44L1377.06 753.44L1333.76 728.44L1333.76 678.44zM1333.76 728.44L1377.06 753.44L1377.06 803.44L1333.76 828.44L1290.45 803.44L1290.45 753.44zM1463.66 353.44L1506.97 378.44L1506.97 428.44L1463.66 453.44L1420.36 428.44L1420.36 378.44z"></path>
            </g>
        </symbol>
        <symbol id="bg-feature-wave-1-bottom" viewBox="0 0 1800.00024 225">
            <path d="M872.87988,185.12844v.00466c-.15039,0-.29785-.00246-.44726-.00246-.1875,0-.37012.00246-.55762.00246v-.00589C646.5332,184.62332,641.28382,34.422,480.7784,4.55523,274.39948-33.84766,119.13181,198.50273,0,148.95924V225H1800.00024V211.25866c-187.77179,18.1064-266.98154-193.4315-556.2876-182.48035C1042.78378,36.3841,1032.62557,176.60043,872.87988,185.12844Z"/>
        </symbol>
        <symbol id="bg-feature-wave-1-middle" viewBox="0 0 1800.00024 287">
            <path d="M1224.83569,34.1214C1023.907,41.72717,1032.62549,145.624,872.87988,154.152v.00464c-.15039,0-.29785-.00244-.44726-.00244-.1875,0-.37012.00244-.55762.00244v-.00586C646.5332,153.64691,658.113,47.06366,497.60767,17.197,291.22876-21.206,119.13184,167.52618.00024,117.98291v92.97638c119.1316,49.5434,274.39942-182.80695,480.77832-144.40405C641.28394,96.422,646.5332,246.62335,871.875,247.12726v.00586c.1875,0,.37012-.00244.55762-.00244.14941,0,.29687.00244.44726.00244v-.00464c159.74585-8.528,169.90406-148.74439,370.83277-156.35016,289.306-10.95117,368.51587,200.58661,556.28759,182.48035V180.28229C1612.22852,198.38855,1514.14185,23.17023,1224.83569,34.1214Z"/>
        </symbol>
        <symbol id="bg-feature-wave-1-top" viewBox="0 0 1800 287">
            <path d="M1224.83557,26.23383c-200.92871,5.8476-192.2102,85.72745-351.95581,92.28411v.00356c-.15039,0-.29785-.00187-.44726-.00187-.1875,0-.37012.00187-.55762.00187v-.0045c-225.3418-.38742-213.762-82.33267-374.26734-105.29532C291.22864-16.304,119.13171,128.80049.00012,90.70974v71.48377C119.13171,200.28435,274.39954,21.64459,480.77844,51.17019c160.50537,22.9627,165.75464,138.4432,391.09644,138.83063v.0045c.1875,0,.37012-.00188.55762-.00188.14941,0,.29687.00188.44726.00188v-.00357c159.74585-6.55666,169.904-114.36032,370.83276-120.20793,289.306-8.41968,368.51587,154.2186,556.2876,140.29782V138.60787C1612.22839,152.52865,1514.14172,17.81415,1224.83557,26.23383Z"/>
        </symbol>
        <mask id="mask-1440x560">
            <rect width="1440" height="560" fill="#ffffff"></rect>
        </mask>
        <mask id="mask-1440x800">
            <rect width="1440" height="560" fill="#ffffff"></rect>
        </mask>
    </defs>
</svg>
